<?xml version="1.0" standalone="no"?><!DOCTYPE svg PUBLIC "-//W3C//DTD SVG 1.1//EN" "http://www.w3.org/Graphics/SVG/1.1/DTD/svg11.dtd"><svg t="1686289075070" class="icon" viewBox="0 0 1170 1024" version="1.1" xmlns="http://www.w3.org/2000/svg" p-id="10381" xmlns:xlink="http://www.w3.org/1999/xlink" width="36.5625" height="32"><path d="M658.285714 512q0-59.428571-23.142857-113.428571T572.571429 305.142857 479.142857 242.571429 365.714286 219.428571t-113.428572 23.142858T158.857143 305.142857 96.285714 398.571429 73.142857 512t23.142857 113.428571T158.857143 718.857143t93.428571 62.571428T365.714286 804.571429t113.428571-23.142858T572.571429 718.857143t62.571428-93.428572T658.285714 512z m438.857143 0q0-59.428571-23.142857-113.428571T1011.428571 305.142857t-93.428571-62.571428T804.571429 219.428571H584q68 51.428571 107.714286 128t39.714285 164.571429-39.714285 164.571429T584 804.571429h220.571429q59.428571 0 113.428571-23.142858T1011.428571 718.857143t62.571429-93.428572T1097.142857 512z m73.142857 0q0 74.285714-29.142857 142t-78 116.571429-116.571428 78-142 29.142857H365.714286q-74.285714 0-142-29.142857t-116.571429-78-78-116.571429-29.142857-142 29.142857-142 78-116.571429 116.571429-78T365.714286 146.285714h438.857143q74.285714 0 142 29.142857t116.571428 78 78 116.571429 29.142857 142z" p-id="10382" fill="#534686"></path></svg>